<svg width="31" height="20" viewBox="0 0 31 20" fill="none" xmlns="http://www.w3.org/2000/svg">
<path d="M24.8516 6.27761C24.8516 4.23804 23.1996 2.58606 21.16 2.58606C19.1204 2.58606 17.4685 4.23804 17.4685 6.27761C17.4685 8.31717 19.1204 9.96916 21.16 9.96916C23.1996 9.96916 24.8516 8.31717 24.8516 6.27761ZM20.9567 8.80006C20.855 8.80006 20.8042 8.74288 20.8042 8.64122C20.8042 8.55862 20.8042 8.48237 20.8042 8.39978C20.8042 8.22187 20.7978 8.21552 20.6263 8.1901C20.4103 8.15833 20.2006 8.1075 19.9973 8.01219C19.8448 7.93595 19.8257 7.89783 19.8702 7.73263C19.902 7.61191 19.9337 7.49118 19.9718 7.37046C20.0163 7.23068 20.0544 7.21162 20.1815 7.28151C20.3976 7.39588 20.6326 7.45941 20.8741 7.49118C21.0329 7.51024 21.1854 7.49754 21.3316 7.434C21.6048 7.31328 21.6429 7.00194 21.4142 6.81133C21.3379 6.74779 21.249 6.69696 21.1537 6.65884C20.9186 6.55718 20.6644 6.47458 20.442 6.34115C20.0799 6.12512 19.8448 5.82014 19.8702 5.38173C19.902 4.87978 20.1815 4.56844 20.6453 4.39689C20.836 4.327 20.836 4.33335 20.836 4.13003C20.836 4.06014 20.836 3.9966 20.836 3.92671C20.8423 3.77422 20.8677 3.7488 21.0139 3.7488C21.0583 3.7488 21.1092 3.7488 21.1537 3.7488C21.4713 3.7488 21.4713 3.7488 21.4713 4.06649C21.4713 4.28887 21.4713 4.28887 21.6937 4.327C21.8653 4.35241 22.0305 4.40324 22.1893 4.47313C22.2783 4.51126 22.31 4.57479 22.2846 4.66375C22.2465 4.80353 22.2084 4.93696 22.1639 5.07674C22.1194 5.20382 22.0813 5.22288 21.9606 5.1657C21.7128 5.04497 21.4523 4.99414 21.1791 5.01321C21.1092 5.01956 21.0393 5.02591 20.9694 5.05768C20.7343 5.15934 20.6962 5.41985 20.8931 5.58505C20.9948 5.66765 21.1092 5.72483 21.2299 5.77566C21.4396 5.86461 21.6492 5.94721 21.8462 6.05523C22.4816 6.40469 22.6531 7.19891 22.202 7.74533C22.0432 7.9423 21.8335 8.07573 21.5857 8.13927C21.4777 8.17104 21.4332 8.22187 21.4332 8.33624C21.4396 8.44425 21.4332 8.55227 21.4332 8.66028C21.4332 8.75559 21.3824 8.81277 21.2871 8.81277C21.1918 8.80642 21.0711 8.80642 20.9567 8.80006Z" fill="#FC9B09"/>
<path d="M15.7965 7.48476C16.3615 7.48476 16.8195 7.02677 16.8195 6.4618C16.8195 5.89684 16.3615 5.43884 15.7965 5.43884C15.2315 5.43884 14.7735 5.89684 14.7735 6.4618C14.7735 7.02677 15.2315 7.48476 15.7965 7.48476Z" fill="#37373F"/>
<path d="M26.542 7.48476C27.1069 7.48476 27.5649 7.02677 27.5649 6.4618C27.5649 5.89684 27.1069 5.43884 26.542 5.43884C25.977 5.43884 25.519 5.89684 25.519 6.4618C25.519 7.02677 25.977 7.48476 26.542 7.48476Z" fill="#37373F"/>
<path d="M29.323 0.25415H13.2416C12.3139 0.25415 11.5578 1.01025 11.5578 1.9379V7.55465C11.8056 7.54195 12.0534 7.53559 12.3075 7.53559C12.5426 7.53559 12.7714 7.54195 13.0001 7.55465V3.76144C13.1335 3.79321 13.2733 3.81227 13.4195 3.81227C14.3598 3.81227 15.1286 3.04982 15.1286 2.1031C15.1286 1.95697 15.1096 1.81718 15.0778 1.68375H27.6011C27.5821 1.78541 27.5694 1.89343 27.5694 1.99509C27.5694 2.93545 28.3318 3.70426 29.2785 3.70426C29.3802 3.70426 29.4818 3.69155 29.5772 3.67884V8.85718C29.4818 8.83812 29.3802 8.83177 29.2785 8.83177C28.3382 8.83177 27.5694 9.59422 27.5694 10.5409C27.5694 10.6489 27.5821 10.7506 27.6011 10.8523H18.6232C18.6232 10.8904 18.6232 10.9285 18.6232 10.9666C18.6232 10.9857 18.6232 10.9984 18.6232 11.0175V12.2946H29.3166C30.2443 12.2946 31.0004 11.5385 31.0004 10.6108V1.9379C31.0068 1.01025 30.2507 0.25415 29.323 0.25415Z" fill="#37373F"/>
<path d="M1.71552 8.48231C2.64318 8.83177 3.86946 9.02238 5.16563 9.02238C5.85184 9.02238 6.51899 8.9652 7.12895 8.86354C7.4657 8.60939 7.89776 8.36794 8.45054 8.16462C9.00332 7.9613 9.64505 7.80246 10.3313 7.7008V6.7795C10.3313 6.76679 10.3313 6.75408 10.3313 6.74137C10.3313 6.73502 10.3313 6.72231 10.3313 6.71596V4.55567C10.3313 4.54296 10.3313 4.53025 10.3313 4.51755C10.3313 4.51119 10.3313 4.49848 10.3313 4.49213V2.33184C10.3313 2.31913 10.3313 2.30643 10.3313 2.29372C10.3313 1.79177 10.0326 1.08014 8.61574 0.546426C7.68809 0.190614 6.46181 0 5.16563 0C3.86946 0 2.64318 0.190614 1.71552 0.540072C0.298628 1.06744 0 1.77906 0 2.28736V4.48578C0 4.49213 0 4.50484 0 4.51119V6.7096C0 6.71596 0 6.72867 0 6.73502V6.76043V8.93343V8.95885C0 8.9652 0 8.97791 0 8.98426V11.1827C0 11.189 0 11.2017 0 11.2081V13.4065C0 13.9084 0.298628 14.6201 1.71552 15.1538C2.64318 15.5033 3.86946 15.6939 5.16563 15.6939C5.4452 15.6939 5.71841 15.6875 5.99163 15.6684V15.4524V15.427C5.99163 15.4207 5.99163 15.4207 5.99163 15.4143C5.99163 15.4079 5.99163 15.4016 5.99163 15.4016V14.5311C5.72477 14.5502 5.4452 14.5629 5.16563 14.5629C4.00289 14.5629 2.91639 14.3977 2.11581 14.0991C1.32159 13.8004 1.13733 13.5018 1.13733 13.4256V12.7076C1.30253 12.7965 1.49949 12.8791 1.71552 12.9617C2.64318 13.3112 3.86946 13.5018 5.16563 13.5018C5.4452 13.5018 5.71841 13.4955 5.99163 13.4764V13.2032C5.99163 13.1968 5.99163 13.1968 5.99163 13.1905C5.99163 13.1841 5.99163 13.1778 5.99163 13.1778V12.3073C5.72477 12.3264 5.4452 12.3391 5.16563 12.3391C4.00289 12.3391 2.91639 12.1739 2.11581 11.8752C1.32159 11.5766 1.13733 11.278 1.13733 11.2017V10.4901C1.30253 10.5791 1.49949 10.6617 1.71552 10.7443C2.64318 11.0937 3.86946 11.2843 5.16563 11.2843C5.4452 11.2843 5.71841 11.278 5.99163 11.2589V10.9857C5.99163 10.7316 6.02975 10.4012 6.18224 10.0453C5.85184 10.0771 5.51509 10.0898 5.16563 10.0898C4.00289 10.0898 2.91639 9.92462 2.11581 9.62599C1.32159 9.32736 1.13733 9.02874 1.13733 8.95249V8.24087C1.30888 8.31076 1.49949 8.39971 1.71552 8.48231ZM2.11581 1.60751C2.92274 1.30888 4.00924 1.14368 5.16563 1.14368C6.32838 1.14368 7.41487 1.30888 8.21545 1.60751C8.98426 1.89343 9.17487 2.17935 9.18758 2.27466V2.29372C9.17487 2.38903 8.98426 2.67495 8.21545 2.96087C7.40852 3.25949 6.32202 3.42469 5.16563 3.42469C4.00289 3.42469 2.91639 3.25949 2.11581 2.96087C1.32159 2.66224 1.13733 2.36361 1.13733 2.28736C1.13733 2.21112 1.32159 1.89978 2.11581 1.60751ZM1.13733 3.7678C1.30253 3.85675 1.49949 3.93935 1.71552 4.02195C2.64318 4.37141 3.86946 4.56202 5.16563 4.56202C6.46181 4.56202 7.68809 4.37141 8.61574 4.02195C8.83177 3.93935 9.02238 3.85675 9.19394 3.7678V4.47942V4.48578C9.18123 4.58108 8.99061 4.867 8.22181 5.15292C7.41487 5.45155 6.32838 5.61675 5.17199 5.61675C4.00924 5.61675 2.92274 5.45155 2.12217 5.15292C1.32794 4.8543 1.14368 4.55567 1.14368 4.47942V3.7678H1.13733ZM1.13733 5.99798C1.30253 6.08693 1.49949 6.16953 1.71552 6.25213C2.64318 6.60159 3.86946 6.7922 5.16563 6.7922C6.46181 6.7922 7.68809 6.60159 8.61574 6.25213C8.83177 6.16953 9.02238 6.08693 9.19394 5.99798V6.7096V6.71596C9.18123 6.81126 8.99061 7.09719 8.22181 7.38311C7.41487 7.68173 6.32838 7.84693 5.17199 7.84693C4.00924 7.84693 2.92274 7.68173 2.12217 7.38311C1.32794 7.08448 1.14368 6.78585 1.14368 6.7096V5.99798H1.13733Z" fill="#FC9B09"/>
<path d="M15.7559 9.22574C14.8282 8.87628 13.6019 8.68567 12.3058 8.68567C11.0096 8.68567 9.7833 8.87628 8.85565 9.22574C7.43875 9.75311 7.14012 10.4647 7.14012 10.973V13.1714C7.14012 13.1778 7.14012 13.1905 7.14012 13.1969V15.3953C7.14012 15.4016 7.14012 15.4143 7.14012 15.4207V15.4461V17.6191V17.6445C7.14012 18.1465 7.43875 18.8581 8.85565 19.3918C9.7833 19.7413 11.0096 19.9319 12.3058 19.9319C13.6019 19.9319 14.8282 19.7413 15.7559 19.3918C17.1728 18.8644 17.4714 18.1528 17.4714 17.6445V17.6191V15.4588C17.4714 15.4461 17.4714 15.4334 17.4714 15.4207C17.4714 15.4143 17.4714 15.4016 17.4714 15.3953V13.235C17.4714 13.2223 17.4714 13.2096 17.4714 13.1969C17.4714 13.1905 17.4714 13.1778 17.4714 13.1714V11.0112C17.4714 10.9984 17.4714 10.9857 17.4714 10.973C17.4777 10.4711 17.1791 9.75946 15.7559 9.22574ZM9.25593 10.2995C10.0629 10.0009 11.1494 9.8357 12.3058 9.8357C13.4685 9.8357 14.555 10.0009 15.3556 10.2995C16.1244 10.5855 16.3214 10.8714 16.3277 10.9667V10.9857C16.315 11.081 16.1244 11.367 15.3556 11.6529C14.5486 11.9515 13.4621 12.1167 12.3058 12.1167C11.143 12.1167 10.0565 11.9515 9.25593 11.6529C8.46171 11.3543 8.27745 11.0556 8.27745 10.9794C8.27745 10.9031 8.45536 10.5918 9.25593 10.2995ZM15.3619 18.3053C14.555 18.6039 13.4685 18.7691 12.3121 18.7691C11.1494 18.7691 10.0629 18.6039 9.26229 18.3053C8.46806 18.0067 8.2838 17.7081 8.2838 17.6318V16.9202C8.449 17.0091 8.64597 17.0917 8.862 17.1743C9.78965 17.5238 11.0159 17.7144 12.3121 17.7144C13.6083 17.7144 14.8346 17.5238 15.7622 17.1743C15.9782 17.0917 16.1689 17.0091 16.3404 16.9202V17.6318C16.3341 17.7081 16.1562 18.0067 15.3619 18.3053ZM16.3341 15.4016V15.408C16.3214 15.5033 16.1307 15.7892 15.3619 16.0751C14.555 16.3738 13.4685 16.539 12.3121 16.539C11.1494 16.539 10.0629 16.3738 9.26229 16.0751C8.46806 15.7765 8.2838 15.4779 8.2838 15.4016V14.69C8.449 14.779 8.64597 14.8616 8.862 14.9442C9.78965 15.2936 11.0159 15.4842 12.3121 15.4842C13.6083 15.4842 14.8346 15.2936 15.7622 14.9442C15.9782 14.8616 16.1689 14.779 16.3404 14.69L16.3341 15.4016ZM16.3341 13.1714V13.1778C16.3214 13.2731 16.1307 13.559 15.3619 13.8449C14.555 14.1436 13.4685 14.3088 12.3121 14.3088C11.1494 14.3088 10.0629 14.1436 9.26229 13.8449C8.46806 13.5463 8.2838 13.2477 8.2838 13.1714V12.4598C8.449 12.5488 8.64597 12.6314 8.862 12.714C9.78965 13.0634 11.0159 13.254 12.3121 13.254C13.6083 13.254 14.8346 13.0634 15.7622 12.714C15.9782 12.6314 16.1689 12.5488 16.3404 12.4598L16.3341 13.1714Z" fill="#37373F"/>
</svg>
