<svg width="90" height="29" viewBox="0 0 90 29" fill="none" xmlns="http://www.w3.org/2000/svg">
<g clip-path="url(#clip0_5097_4438)">
<path d="M87.1967 17.723L89.6934 19.3575C88.883 20.5296 86.9448 22.5405 83.594 22.5405C79.4329 22.5405 76.334 19.379 76.334 15.3573C76.334 11.0775 79.4658 8.17407 83.2436 8.17407C87.0434 8.17407 88.9049 11.142 89.5072 12.7442L89.8357 13.5615L80.0461 17.5402C80.7908 18.9812 81.9515 19.7124 83.594 19.7124C85.2366 19.7124 86.3754 18.9166 87.1967 17.723ZM79.5205 15.1315L86.0579 12.4646C85.6965 11.5721 84.6234 10.9377 83.3422 10.9377C81.7106 10.9377 79.4439 12.3571 79.5205 15.1315Z" fill="#FF302F"/>
<path d="M71.6144 0.851074H74.7681V21.8846H71.6144V0.851074Z" fill="#20B15A"/>
<path d="M66.643 8.73326H69.6872V21.5082C69.6872 26.8096 66.5007 28.9925 62.7338 28.9925C59.1859 28.9925 57.0506 26.6483 56.2512 24.745L59.0435 23.6051C59.5472 24.7772 60.7627 26.1644 62.7338 26.1644C65.1538 26.1644 66.643 24.6912 66.643 21.9383V20.906H66.5335C65.8108 21.7663 64.4311 22.5405 62.679 22.5405C59.0216 22.5405 55.6708 19.4113 55.6708 15.3788C55.6708 11.3248 59.0216 8.16333 62.679 8.16333C64.4201 8.16333 65.8108 8.92682 66.5335 9.76557H66.643V8.73326ZM66.8621 15.3788C66.8621 12.841 65.1429 10.9915 62.9528 10.9915C60.7408 10.9915 58.8793 12.841 58.8793 15.3788C58.8793 17.8843 60.7408 19.7016 62.9528 19.7016C65.1429 19.7124 66.8621 17.8843 66.8621 15.3788Z" fill="#3686F7"/>
<path d="M38.3583 15.3251C38.3583 19.4651 35.0732 22.5083 31.0435 22.5083C27.0138 22.5083 23.7287 19.4543 23.7287 15.3251C23.7287 11.1635 27.0138 8.1311 31.0435 8.1311C35.0732 8.1311 38.3583 11.1635 38.3583 15.3251ZM35.1608 15.3251C35.1608 12.7443 33.2555 10.97 31.0435 10.97C28.8315 10.97 26.9262 12.7443 26.9262 15.3251C26.9262 17.8844 28.8315 19.6802 31.0435 19.6802C33.2555 19.6802 35.1608 17.8844 35.1608 15.3251Z" fill="#FF302F"/>
<path d="M54.3348 15.3573C54.3348 19.4973 51.0497 22.5405 47.02 22.5405C42.9903 22.5405 39.7052 19.4973 39.7052 15.3573C39.7052 11.1958 42.9903 8.17407 47.02 8.17407C51.0497 8.17407 54.3348 11.185 54.3348 15.3573ZM51.1264 15.3573C51.1264 12.7765 49.221 11.0022 47.0091 11.0022C44.7971 11.0022 42.8917 12.7765 42.8917 15.3573C42.8917 17.9166 44.7971 19.7124 47.0091 19.7124C49.232 19.7124 51.1264 17.9058 51.1264 15.3573Z" fill="#FFBA40"/>
<path d="M11.7053 19.3899C7.1171 19.3899 3.52539 15.7553 3.52539 11.2496C3.52539 6.744 7.1171 3.10937 11.7053 3.10937C14.18 3.10937 15.9868 4.06642 17.3228 5.2923L19.5238 3.13088C17.6622 1.37809 15.1765 0.0446777 11.7053 0.0446777C5.4198 0.0446777 0.130798 5.07723 0.130798 11.2496C0.130798 17.422 5.4198 22.4546 11.7053 22.4546C15.0999 22.4546 17.6622 21.3578 19.6662 19.3146C21.7248 17.293 22.3599 14.4541 22.3599 12.1529C22.3599 11.4324 22.2723 10.6905 22.1738 10.142H11.7053V13.1315H19.1624C18.9434 15.0025 18.3412 16.2822 17.4542 17.1532C16.3811 18.2178 14.6838 19.3899 11.7053 19.3899Z" fill="#3686F7"/>
</g>
<defs>
<clipPath id="clip0_5097_4438">
<rect width="90" height="29" fill="white"/>
</clipPath>
</defs>
</svg>
