<svg width="107" height="25" viewBox="0 0 107 25" fill="none" xmlns="http://www.w3.org/2000/svg">
<g clip-path="url(#clip0_5097_4449)">
<path d="M33.4143 3.86434C33.0155 2.34437 31.8642 1.15705 30.3903 0.745749C27.7388 0 17.0669 0 17.0669 0C17.0669 0 6.39506 0.0225984 3.74353 0.768348C2.26964 1.17964 1.1183 2.36697 0.719475 3.88693C-0.0825572 8.7456 -0.393728 16.1489 0.741388 20.8132C1.14022 22.3331 2.29156 23.5205 3.76544 23.9318C6.41697 24.6775 17.0888 24.6775 17.0888 24.6775C17.0888 24.6775 27.7607 24.6775 30.4122 23.9318C31.8861 23.5205 33.0374 22.3331 33.4362 20.8132C34.2821 15.9477 34.5429 8.549 33.4143 3.86434Z" fill="#FF0000"/>
<path d="M13.6703 17.6269L22.5234 12.3388L13.6703 7.05078V17.6269Z" fill="white"/>
<path d="M102.661 7.16366C103.822 7.16366 104.699 7.38964 105.312 7.81901C105.926 8.24838 106.364 8.92634 106.627 9.85287C106.89 10.7794 107 12.0449 107 13.672V16.316H101.368V17.1296L101.456 19.3668C101.521 19.864 101.631 20.2256 101.806 20.4515C101.981 20.6775 102.266 20.7905 102.639 20.7905C103.143 20.7905 103.494 20.5871 103.669 20.1804C103.866 19.7736 103.954 19.0956 103.976 18.1691L106.89 18.3499C106.912 18.4855 106.912 18.6663 106.912 18.8923C106.912 20.316 106.539 21.3781 105.773 22.0786C105.006 22.7792 103.954 23.1408 102.573 23.1408C100.908 23.1408 99.7463 22.5984 99.0889 21.5363C98.4315 20.4741 98.0809 18.8019 98.0809 16.5646V13.8302C98.1554 9.98847 98.8106 7.17496 102.661 7.16366ZM62.1429 7.45744V18.7793C62.1429 19.4572 62.2086 19.9544 62.362 20.2482C62.6732 20.8764 63.4796 20.716 63.9178 20.4064C64.1709 20.23 64.3748 19.9885 64.5095 19.7058V7.45744H67.8623V22.8922H65.2327L64.9478 20.9939H64.882C64.1589 22.4176 63.0851 23.1408 61.6608 23.1408C59.4684 23.135 58.9322 21.5063 58.8045 19.852L58.7961 19.7353C58.7794 19.4822 58.7716 19.2294 58.7682 18.9827V7.45744H62.1429ZM79.4326 7.45744V18.7793C79.4326 19.4572 79.4983 19.9544 79.6517 20.2482C79.9629 20.8764 80.7693 20.716 81.2076 20.4064C81.4606 20.23 81.6645 19.9885 81.7992 19.7058V7.45744H85.152V22.8922H82.5224L82.2375 20.9939H82.1717C81.4486 22.4176 80.3748 23.1408 78.9505 23.1408C76.7581 23.135 76.2219 21.5063 76.0942 19.852L76.0858 19.7353C76.0691 19.4822 76.0613 19.2294 76.0579 18.9827V7.45744H79.4326ZM52.4133 7.16366C53.509 7.16366 54.4074 7.38964 55.0648 7.86421C55.7222 8.33878 56.2262 9.06193 56.533 10.0563C56.8398 11.0506 56.9932 12.3839 56.9932 14.0336V16.2708C56.9932 17.9205 56.8398 19.2312 56.533 20.2256C56.2262 21.2199 55.7441 21.943 55.0648 22.4176C54.3855 22.8696 53.4651 23.1182 52.3256 23.1182C51.1423 23.1408 50.2219 22.8922 49.5426 22.4402C48.8633 21.9656 48.3812 21.2425 48.0963 20.2482C47.8115 19.2538 47.68 17.9431 47.68 16.2934V14.0562C47.68 12.4065 47.8334 11.0506 48.1621 10.0563C48.4908 9.03933 48.9948 8.31618 49.696 7.86421C50.3972 7.41224 51.2957 7.16366 52.4133 7.16366ZM90.4112 0.97168V9.10712H90.4331C90.7399 8.51956 91.1343 8.045 91.6822 7.68342C92.1938 7.32855 92.7967 7.13966 93.4133 7.14106C94.2241 7.14106 94.8377 7.36704 95.2979 7.79641C95.7581 8.24838 96.0868 8.94894 96.284 9.92067C96.4751 10.862 96.5839 12.1639 96.5905 13.8058L96.5908 13.9658V16.4064C96.5908 18.6889 96.3059 20.3838 95.78 21.4685C95.2322 22.5532 94.3994 23.0956 93.2599 23.0956C92.6245 23.0956 92.0547 22.9374 91.5288 22.6436C91.0633 22.3639 90.6779 21.9629 90.4108 21.4816L90.3674 21.4007H90.3016L89.951 22.8696H87.168V0.97168H90.4112ZM77.0002 1.76263V4.56483H73.6693V22.8922H70.3823V4.56483H67.0296V1.76263H77.0002ZM40.8649 1.76263L40.8668 1.77113C40.8989 1.91811 41.342 3.94938 41.8292 6.31584L41.8677 6.50334C41.887 6.5974 41.9064 6.69193 41.9258 6.78682L41.9646 6.97705C41.9711 7.00883 41.9776 7.04064 41.9841 7.07248L42.0229 7.26385C42.0294 7.2958 42.0359 7.32776 42.0424 7.35975L42.0812 7.55188L42.1377 7.83267C42.4666 9.47141 42.7807 11.115 42.9686 12.2935H43.0562C43.2364 11.2363 43.4978 9.88347 43.7766 8.5023L43.8497 8.14152C43.8864 7.96099 43.9233 7.78037 43.9603 7.60026L44.0178 7.32057C44.5543 4.71858 45.088 2.28778 45.1873 1.83708L45.1938 1.80798C45.2003 1.7781 45.2038 1.76263 45.2038 1.76263H48.5565L44.6778 16.0223V22.8696H41.3689V16.0449H41.347L37.5121 1.76263H40.8649ZM52.3475 9.55909C51.8874 9.55909 51.5806 9.80768 51.3834 10.3274C51.1861 10.8472 51.0985 11.6382 51.0985 12.7455V17.5589C51.0985 18.6889 51.1861 19.525 51.3614 20.0222C51.5367 20.5193 51.8654 20.7679 52.3475 20.7679C52.8077 20.7679 53.1364 20.5193 53.3337 20.0222C53.5309 19.525 53.6185 18.6889 53.6185 17.5589V12.7455C53.6185 11.6382 53.5309 10.8246 53.3337 10.3274C53.1364 9.80768 52.8077 9.55909 52.3475 9.55909ZM91.0029 10.0111C90.7358 10.2653 90.5458 10.5791 90.4328 10.9711L90.4112 11.0506V19.8188C90.6829 20.2934 91.0686 20.6097 91.7479 20.6323C92.0985 20.6323 92.3834 20.4967 92.6025 20.2256C92.8217 19.9544 92.9751 19.5024 93.0627 18.8697C93.1469 18.2622 93.1906 17.4257 93.194 16.36L93.1942 16.2256V14.2144C93.1942 12.9941 93.1504 12.0675 93.0846 11.4122C92.997 10.7568 92.8874 10.2822 92.6902 10.0111C92.3089 9.4461 91.485 9.45288 91.0029 10.0111ZM102.595 9.4913C102.223 9.5139 101.96 9.62689 101.806 9.83028C101.631 10.0563 101.521 10.3952 101.456 10.8924C101.391 11.3796 101.369 13.0822 101.368 13.1502L101.368 14.2596H103.822L103.822 13.2812L103.822 13.3C103.821 13.6421 103.814 13.1014 103.799 12.4379L103.797 12.3487C103.783 11.7654 103.763 11.1152 103.735 10.8924C103.669 10.3726 103.559 10.0111 103.384 9.80768C103.209 9.60429 102.946 9.4913 102.595 9.4913Z" fill="white"/>
</g>
<defs>
<clipPath id="clip0_5097_4449">
<rect width="107" height="25" fill="white"/>
</clipPath>
</defs>
</svg>
