<svg width="47" height="46" viewBox="0 0 47 46" fill="none" xmlns="http://www.w3.org/2000/svg">
<path d="M24.0643 3.81506H22.8105C14.9332 3.81506 11.4606 5.0098 8.69695 8.70558C6.49786 11.6333 6.49786 16.3925 6.49786 19.5632C6.49786 22.7338 6.49786 27.5127 8.70351 30.4273C10.0571 32.342 12.0192 33.7419 14.2702 34.3988V40.5169C14.2702 40.6218 14.2909 40.7256 14.3312 40.8224C14.3716 40.9192 14.4307 41.007 14.5051 41.0809C14.5796 41.1547 14.6679 41.2131 14.765 41.2526C14.8622 41.2921 14.9662 41.3121 15.071 41.3112C15.1827 41.3109 15.2929 41.286 15.3938 41.2384C15.4948 41.1907 15.584 41.1215 15.6553 41.0355L20.6508 35.2785C21.3335 35.3047 22.0556 35.3179 22.8171 35.3179H24.0709C31.9482 35.3179 35.4208 34.1166 38.1845 30.4273C40.3638 27.5127 40.3901 22.7338 40.3901 19.5632C40.3901 16.3925 40.3901 11.6136 38.1845 8.70558C35.4208 5.0098 31.9482 3.81506 24.0709 3.81506" fill="white"/>
</svg>
