<svg width="51" height="51" viewBox="0 0 51 51" fill="none" xmlns="http://www.w3.org/2000/svg">
<path fill-rule="evenodd" clip-rule="evenodd" d="M50.1562 25.5L50.1556 27.975L50.1538 29L50.1507 29.7865L50.1463 30.4493L50.1408 31.0331L50.134 31.5607L50.1259 32.0455L50.1166 32.4966L50.1061 32.92L50.0943 33.3201L50.0813 33.7004L50.0671 34.0634L50.0516 34.4112L50.0349 34.7455L50.0169 35.0677L49.9977 35.3789L49.9772 35.6801L49.9555 35.9722L49.9325 36.2558L49.9083 36.5316L49.8829 36.8002L49.8562 37.062L49.8282 37.3174L49.799 37.5668L49.7685 37.8106L49.7368 38.049L49.7038 38.2824L49.6695 38.511L49.634 38.7349L49.5972 38.9545L49.5592 39.1699L49.5199 39.3813L49.4793 39.5889L49.4374 39.7927L49.3943 39.993L49.3498 40.1898L49.3041 40.3833L49.2571 40.5735L49.2089 40.7607L49.1593 40.9448L49.1084 41.126L49.0563 41.3044L49.0028 41.48L48.9481 41.6528L48.892 41.8231L48.8346 41.9908L48.7759 42.156L48.7159 42.3187L48.6546 42.479L48.5919 42.637L48.5279 42.7927L48.4626 42.9462L48.3959 43.0975L48.3279 43.2466L48.2585 43.3935L48.1877 43.5384L48.1157 43.6813L48.0422 43.8221L47.9673 43.9609L47.8911 44.0978L47.8135 44.2328L47.7345 44.3659L47.6541 44.4971L47.5723 44.6264L47.4891 44.7539L47.4044 44.8797L47.3183 45.0037L47.2308 45.1259L47.1419 45.2464L47.0514 45.3651L46.9595 45.4822L46.8662 45.5976L46.7713 45.7114L46.675 45.8235L46.5771 45.934L46.4777 46.0428L46.3768 46.1501L46.2744 46.2558L46.1704 46.3599L46.0648 46.4625L45.9577 46.5635L45.8489 46.663L45.7386 46.761L45.6266 46.8574L45.513 46.9524L45.3977 47.0459L45.2808 47.1379L45.1621 47.2285L45.0418 47.3175L44.9197 47.4052L44.7959 47.4914L44.6703 47.5761L44.5429 47.6595L44.4137 47.7414L44.2826 47.8219L44.1497 47.901L44.0149 47.9787L43.8781 48.0551L43.7395 48.13L43.5988 48.2036L43.4561 48.2758L43.3114 48.3467L43.1646 48.4161L43.0157 48.4843L42.8646 48.5511L42.7113 48.6165L42.5558 48.6806L42.398 48.7434L42.2378 48.8048L42.0753 48.8649L41.9103 48.9237L41.7428 48.9812L41.5728 49.0374L41.4001 49.0923L41.2247 49.1458L41.0466 49.1981L40.8656 49.2491L40.6817 49.2987L40.4948 49.3471L40.3048 49.3942L40.1116 49.44L39.915 49.4845L39.715 49.5278L39.5115 49.5697L39.3043 49.6104L39.0932 49.6498L38.8781 49.688L38.6588 49.7249L38.4352 49.7605L38.207 49.7948L37.974 49.8279L37.736 49.8598L37.4927 49.8904L37.2437 49.9197L36.9888 49.9477L36.7275 49.9745L36.4595 50.0001L36.1843 50.0244L35.9013 50.0475L35.6099 50.0693L35.3095 50.0898L34.9991 50.1092L34.6778 50.1272L34.3445 50.1441L33.9978 50.1597L33.6361 50.174L33.2573 50.1871L32.8589 50.199L32.4375 50.2096L31.9889 50.219L31.507 50.2271L30.9832 50.234L30.4046 50.2397L29.7492 50.2441L28.9753 50.2473L27.9779 50.2493L26.1047 50.25L23.0318 50.2495L21.9766 50.2477L21.177 50.2447L20.5064 50.2405L19.9173 50.235L19.3859 50.2283L18.898 50.2204L18.4445 50.2112L18.0191 50.2008L17.6172 50.1891L17.2355 50.1762L16.8712 50.162L16.5222 50.1466L16.1869 50.13L15.8638 50.1121L15.5518 50.093L15.2498 50.0726L14.957 50.051L14.6727 50.0282L14.3963 50.0041L14.1272 49.9787L13.8649 49.9521L13.609 49.9242L13.3591 49.8951L13.1149 49.8647L12.876 49.8331L12.6422 49.8002L12.4133 49.7661L12.189 49.7306L11.969 49.694L11.7533 49.656L11.5416 49.6168L11.3337 49.5763L11.1296 49.5345L10.9291 49.4915L10.732 49.4472L10.5382 49.4016L10.3477 49.3547L10.1603 49.3065L9.97595 49.257L9.79452 49.2063L9.61595 49.1542L9.44015 49.1009L9.26706 49.0462L9.0966 48.9903L8.92871 48.933L8.76334 48.8744L8.60041 48.8145L8.43988 48.7532L8.2817 48.6907L8.12581 48.6268L7.97217 48.5616L7.82074 48.495L7.67147 48.4271L7.52433 48.3578L7.37927 48.2872L7.23627 48.2152L7.09529 48.1418L6.95629 48.0671L6.81925 47.991L6.68413 47.9135L6.55091 47.8346L6.41956 47.7543L6.29006 47.6726L6.16238 47.5895L6.03649 47.505L5.91238 47.419L5.79003 47.3316L5.66941 47.2427L5.5505 47.1524L5.43328 47.0607L5.31774 46.9674L5.20387 46.8727L5.09163 46.7764L4.98102 46.6787L4.87203 46.5795L4.76463 46.4787L4.65881 46.3764L4.55456 46.2725L4.45187 46.167L4.35072 46.06L4.2511 45.9514L4.15301 45.8412L4.05642 45.7293L3.96133 45.6158L3.86772 45.5007L3.7756 45.3839L3.68494 45.2654L3.59574 45.1452L3.50799 45.0232L3.42168 44.8996L3.3368 44.7741L3.25335 44.6468L3.17131 44.5178L3.09068 44.3869L3.01146 44.2541L2.93363 44.1194L2.85718 43.9829L2.78212 43.8443L2.70844 43.7038L2.63613 43.5613L2.56518 43.4167L2.49558 43.2701L2.42734 43.1214L2.36045 42.9704L2.2949 42.8173L2.23069 42.662L2.16781 42.5044L2.10626 42.3444L2.04604 42.182L1.98713 42.0173L1.92954 41.85L1.87326 41.6801L1.81829 41.5077L1.76463 41.3325L1.71226 41.1546L1.6612 40.9739L1.61142 40.7902L1.56294 40.6036L1.51575 40.4138L1.46984 40.2208L1.42522 40.0245L1.38187 39.8248L1.3398 39.6216L1.29901 39.4146L1.25949 39.2039L1.22123 38.9891L1.18425 38.7702L1.14853 38.5469L1.11408 38.3191L1.08088 38.0865L1.04895 37.8489L1.01828 37.606L0.988856 37.3575L0.960692 37.1031L0.933782 36.8423L0.908123 36.5749L0.883715 36.3003L0.860556 36.0179L0.838645 35.7272L0.817981 35.4275L0.798562 35.1179L0.780389 34.7976L0.763459 34.4653L0.747772 34.1197L0.733327 33.7593L0.720123 33.3819L0.708161 32.9852L0.697438 32.5658L0.687955 32.1195L0.679711 31.6405L0.672706 31.1205L0.666939 30.5468L0.66241 29.8988L0.659119 29.1367L0.657066 28.1648L0.65625 26.4877L0.656672 23.2306L0.658331 22.1422L0.661228 21.3288L0.665362 20.6501L0.670735 20.0556L0.677345 19.5202L0.685195 19.0292L0.694283 18.5732L0.704611 18.1458L0.716178 17.7422L0.728987 17.359L0.743036 16.9934L0.758327 16.6433L0.774861 16.3069L0.792638 15.9829L0.81166 15.67L0.831928 15.3672L0.853441 15.0737L0.876203 14.7888L0.900213 14.5118L0.925473 14.2421L0.951985 13.9793L0.979749 13.7229L1.00877 13.4725L1.03904 13.2279L1.07058 12.9886L1.10337 12.7544L1.13742 12.5251L1.17274 12.3004L1.20932 12.0801L1.24716 11.8641L1.28628 11.652L1.32667 11.4439L1.36833 11.2395L1.41127 11.0387L1.45549 10.8413L1.50099 10.6473L1.54777 10.4565L1.59584 10.2689L1.6452 10.0843L1.69586 9.9026L1.74781 9.7238L1.80106 9.54778L1.85561 9.37448L1.91147 9.20381L1.96865 9.03572L2.02713 8.87015L2.08694 8.70703L2.14806 8.54631L2.21052 8.38794L2.27431 8.23187L2.33943 8.07806L2.40589 7.92645L2.4737 7.77701L2.54286 7.6297L2.61338 7.48448L2.68526 7.34132L2.75851 7.20018L2.83313 7.06102L2.90913 6.92382L2.98651 6.78855L3.06529 6.65519L3.14547 6.52369L3.22706 6.39404L3.31006 6.26621L3.39448 6.14019L3.48034 6.01594L3.56763 5.89344L3.65637 5.77268L3.74656 5.65364L3.83822 5.53629L3.93135 5.42062L4.02597 5.30661L4.12208 5.19424L4.21969 5.0835L4.31882 4.97438L4.41948 4.86685L4.52168 4.76091L4.62543 4.65654L4.73075 4.55372L4.83764 4.45245L4.94613 4.35271L5.05622 4.25449L5.16794 4.15779L5.28129 4.06258L5.3963 3.96885L5.51298 3.87661L5.63134 3.78584L5.75142 3.69652L5.87322 3.60865L5.99677 3.52223L6.12209 3.43724L6.24919 3.35367L6.37811 3.27152L6.50887 3.19078L6.64149 3.11145L6.776 3.0335L6.91243 2.95695L7.0508 2.88178L7.19115 2.80799L7.3335 2.73557L7.4779 2.66451L7.62437 2.59481L7.77296 2.52646L7.9237 2.45946L8.07663 2.39381L8.23179 2.32949L8.38924 2.2665L8.54902 2.20485L8.71117 2.14452L8.87577 2.08551L9.04285 2.02781L9.21248 1.97143L9.38472 1.91635L9.55965 1.86259L9.73733 1.81012L9.91785 1.75895L10.1013 1.70907L10.2877 1.66049L10.4772 1.61319L10.6699 1.56718L10.8659 1.52245L11.0654 1.47901L11.2683 1.43684L11.475 1.39594L11.6854 1.35632L11.8999 1.31796L12.1184 1.28088L12.3414 1.24506L12.5688 1.2105L12.801 1.17721L13.0382 1.14518L13.2807 1.1144L13.5287 1.08488L13.7827 1.05662L14.0429 1.02961L14.3098 1.00385L14.5838 0.979343L14.8655 0.956085L15.1555 0.934075L15.4545 0.913311L15.7633 0.893793L16.0827 0.875521L16.414 0.858492L16.7585 0.842706L17.1177 0.828162L17.4936 0.81486L17.8887 0.802798L18.3061 0.791977L18.7501 0.782395L19.2262 0.774053L19.7426 0.766949L20.3113 0.761083L20.9524 0.756456L21.7031 0.753066L22.6515 0.750914L24.1965 0.75L27.5655 0.750323L28.6906 0.751884L29.5186 0.754682L30.2056 0.758718L30.8057 0.763992L31.3452 0.770504L31.8393 0.778255L32.2978 0.787244L32.7274 0.797473L33.1327 0.808942L33.5174 0.821652L33.8843 0.835602L34.2356 0.850794L34.573 0.867229L34.898 0.884908L35.2117 0.90383L35.5153 0.923998L35.8095 0.945413L36.095 0.968075L36.3727 0.991986L36.6429 1.01715L36.9063 1.04356L37.1632 1.07122L37.414 1.10014L37.6591 1.13032L37.8988 1.16175L38.1333 1.19444L38.363 1.22839L38.5881 1.26361L38.8087 1.30009L39.0251 1.33783L39.2374 1.37685L39.4459 1.41714L39.6506 1.4587L39.8517 1.50154L40.0493 1.54565L40.2436 1.59105L40.4346 1.63773L40.6225 1.6857L40.8074 1.73496L40.9893 1.78551L41.1683 1.83735L41.3445 1.8905L41.518 1.94495L41.6889 2.00071L41.8572 2.05778L42.023 2.11616L42.1863 2.17586L42.3472 2.23688L42.5057 2.29923L42.662 2.36291L42.816 2.42792L42.9678 2.49428L43.1174 2.56198L43.2649 2.63104L43.4102 2.70145L43.5536 2.77322L43.6949 2.84635L43.8342 2.92086L43.9715 2.99676L44.107 3.07403L44.2405 3.1527L44.3721 3.23277L44.5019 3.31424L44.6299 3.39713L44.7561 3.48144L44.8805 3.56718L45.0031 3.65436L45.124 3.74298L45.2432 3.83306L45.3606 3.9246L45.4764 4.01761L45.5906 4.11211L45.7031 4.2081L45.814 4.3056L45.9232 4.40461L46.0309 4.50514L46.1369 4.60722L46.2414 4.71085L46.3444 4.81604L46.4458 4.92281L46.5456 5.03117L46.644 5.14113L46.7408 5.25272L46.8361 5.36594L46.93 5.48081L47.0223 5.59736L47.1132 5.71559L47.2026 5.83553L47.2906 5.95719L47.3772 6.0806L47.4623 6.20577L47.5459 6.33274L47.6282 6.46151L47.7091 6.59212L47.7885 6.7246L47.8666 6.85895L47.9432 6.99523L48.0185 7.13344L48.0924 7.27363L48.1649 7.41583L48.2361 7.56006L48.3059 7.70637L48.3744 7.85478L48.4415 8.00535L48.5072 8.1581L48.5717 8.31309L48.6347 8.47035L48.6965 8.62994L48.7569 8.79191L48.8161 8.9563L48.8739 9.12318L48.9303 9.29261L48.9855 9.46465L49.0394 9.63936L49.092 9.81682L49.1432 9.9971L49.1932 10.1803L49.2419 10.3665L49.2893 10.5557L49.3354 10.7482L49.3802 10.9439L49.4238 11.1431L49.4661 11.3458L49.5071 11.5521L49.5468 11.7623L49.5852 11.9764L49.6224 12.1946L49.6583 12.4172L49.693 12.6443L49.7264 12.8761L49.7585 13.1129L49.7894 13.3549L49.819 13.6025L49.8474 13.856L49.8745 14.1157L49.9004 14.382L49.925 14.6555L49.9483 14.9366L49.9704 15.2259L49.9913 15.5241L50.0109 15.832L50.0293 16.1506L50.0464 16.4809L50.0623 16.8243L50.0769 17.1822L50.0903 17.5567L50.1025 17.9502L50.1134 18.3657L50.1231 18.8074L50.1315 19.2807L50.1387 19.7935L50.1447 20.3575L50.1494 20.9917L50.1529 21.7315L50.1552 22.658L50.1562 24.1031L50.1562 25.5Z" fill="url(#paint0_linear_1869_623)"/>
<defs>
<linearGradient id="paint0_linear_1869_623" x1="0.65625" y1="50.25" x2="50.1562" y2="0.75" gradientUnits="userSpaceOnUse">
<stop stop-color="#FF946E"/>
<stop offset="1" stop-color="#FFB86C"/>
</linearGradient>
</defs>
</svg>
