<svg width="51" height="51" viewBox="0 0 51 51" fill="none" xmlns="http://www.w3.org/2000/svg">
<path fill-rule="evenodd" clip-rule="evenodd" d="M50 26.25L49.9994 28.725L49.9975 29.75L49.9944 30.5365L49.9901 31.1993L49.9845 31.7831L49.9777 32.3107L49.9697 32.7955L49.9604 33.2466L49.9499 33.67L49.9381 34.0701L49.9251 34.4504L49.9108 34.8134L49.8954 35.1612L49.8786 35.4955L49.8606 35.8177L49.8414 36.1289L49.821 36.4301L49.7993 36.7222L49.7763 37.0058L49.7521 37.2816L49.7266 37.5502L49.6999 37.812L49.6719 38.0674L49.6427 38.3168L49.6123 38.5606L49.5805 38.799L49.5475 39.0324L49.5133 39.261L49.4778 39.4849L49.441 39.7045L49.4029 39.9199L49.3636 40.1313L49.323 40.3389L49.2811 40.5427L49.238 40.743L49.1936 40.9398L49.1479 41.1333L49.1009 41.3235L49.0526 41.5107L49.0031 41.6948L48.9522 41.876L48.9 42.0544L48.8466 42.23L48.7918 42.4028L48.7357 42.5731L48.6784 42.7408L48.6197 42.906L48.5597 43.0687L48.4983 43.229L48.4356 43.387L48.3716 43.5427L48.3063 43.6962L48.2396 43.8475L48.1716 43.9966L48.1022 44.1435L48.0315 44.2884L47.9594 44.4313L47.8859 44.5721L47.8111 44.7109L47.7349 44.8478L47.6573 44.9828L47.5783 45.1159L47.4979 45.2471L47.416 45.3764L47.3328 45.5039L47.2482 45.6297L47.1621 45.7537L47.0746 45.8759L46.9856 45.9964L46.8952 46.1151L46.8033 46.2322L46.7099 46.3476L46.6151 46.4614L46.5187 46.5735L46.4209 46.684L46.3215 46.7928L46.2206 46.9001L46.1181 47.0058L46.0141 47.1099L45.9086 47.2125L45.8014 47.3135L45.6927 47.413L45.5823 47.511L45.4704 47.6074L45.3567 47.7024L45.2415 47.7959L45.1245 47.8879L45.0059 47.9785L44.8855 48.0675L44.7635 48.1552L44.6396 48.2414L44.514 48.3261L44.3866 48.4095L44.2574 48.4914L44.1264 48.5719L43.9934 48.651L43.8586 48.7287L43.7219 48.8051L43.5832 48.88L43.4425 48.9536L43.2999 49.0258L43.1551 49.0967L43.0083 49.1661L42.8594 49.2343L42.7083 49.3011L42.555 49.3665L42.3995 49.4306L42.2417 49.4934L42.0816 49.5548L41.919 49.6149L41.754 49.6737L41.5865 49.7312L41.4165 49.7874L41.2438 49.8423L41.0685 49.8958L40.8903 49.9481L40.7094 49.9991L40.5255 50.0487L40.3386 50.0971L40.1485 50.1442L39.9553 50.19L39.7588 50.2345L39.5588 50.2778L39.3552 50.3197L39.148 50.3604L38.9369 50.3998L38.7218 50.438L38.5026 50.4749L38.279 50.5105L38.0508 50.5448L37.8178 50.5779L37.5798 50.6098L37.3364 50.6404L37.0875 50.6697L36.8325 50.6977L36.5713 50.7245L36.3033 50.7501L36.0281 50.7744L35.7451 50.7975L35.4537 50.8193L35.1532 50.8398L34.8428 50.8592L34.5216 50.8772L34.1883 50.8941L33.8416 50.9097L33.4799 50.924L33.1011 50.9371L32.7026 50.949L32.2813 50.9596L31.8326 50.969L31.3507 50.9771L30.827 50.984L30.2483 50.9897L29.593 50.9941L28.819 50.9973L27.8216 50.9993L25.9484 51L22.8756 50.9995L21.8203 50.9977L21.0207 50.9947L20.3501 50.9905L19.7611 50.985L19.2296 50.9783L18.7417 50.9704L18.2882 50.9612L17.8628 50.9508L17.461 50.9391L17.0792 50.9262L16.715 50.912L16.366 50.8966L16.0307 50.88L15.7076 50.8621L15.3955 50.843L15.0935 50.8226L14.8007 50.801L14.5165 50.7782L14.24 50.7541L13.9709 50.7287L13.7086 50.7021L13.4527 50.6742L13.2028 50.6451L12.9586 50.6147L12.7198 50.5831L12.486 50.5502L12.2571 50.5161L12.0327 50.4806L11.8128 50.444L11.597 50.406L11.3853 50.3668L11.1775 50.3263L10.9734 50.2845L10.7728 50.2415L10.5757 50.1972L10.382 50.1516L10.1915 50.1047L10.0041 50.0565L9.8197 50.007L9.63827 49.9563L9.4597 49.9042L9.2839 49.8509L9.11081 49.7962L8.94035 49.7403L8.77246 49.683L8.60709 49.6244L8.44416 49.5645L8.28363 49.5032L8.12545 49.4407L7.96956 49.3768L7.81592 49.3116L7.66449 49.245L7.51522 49.1771L7.36808 49.1078L7.22302 49.0372L7.08002 48.9652L6.93904 48.8918L6.80004 48.8171L6.663 48.741L6.52788 48.6635L6.39466 48.5846L6.26331 48.5043L6.13381 48.4226L6.00613 48.3395L5.88024 48.255L5.75613 48.169L5.63378 48.0816L5.51316 47.9927L5.39425 47.9024L5.27703 47.8107L5.16149 47.7174L5.04762 47.6227L4.93538 47.5264L4.82477 47.4287L4.71578 47.3295L4.60838 47.2287L4.50256 47.1264L4.39831 47.0225L4.29562 46.917L4.19447 46.81L4.09485 46.7014L3.99676 46.5912L3.90017 46.4793L3.80508 46.3658L3.71147 46.2507L3.61935 46.1339L3.52869 46.0154L3.43949 45.8952L3.35174 45.7732L3.26543 45.6496L3.18055 45.5241L3.0971 45.3968L3.01506 45.2678L2.93443 45.1369L2.85521 45.0041L2.77738 44.8694L2.70093 44.7329L2.62587 44.5943L2.55219 44.4538L2.47988 44.3113L2.40893 44.1667L2.33933 44.0201L2.27109 43.8714L2.2042 43.7204L2.13865 43.5673L2.07444 43.412L2.01156 43.2544L1.95001 43.0944L1.88979 42.932L1.83088 42.7673L1.77329 42.6L1.71701 42.4301L1.66204 42.2577L1.60838 42.0825L1.55601 41.9046L1.50495 41.7239L1.45517 41.5402L1.40669 41.3536L1.3595 41.1638L1.31359 40.9708L1.26897 40.7745L1.22562 40.5748L1.18355 40.3716L1.14276 40.1646L1.10324 39.9539L1.06498 39.7391L1.028 39.5202L0.992281 39.2969L0.957826 39.0691L0.924633 38.8365L0.8927 38.5989L0.862025 38.356L0.832606 38.1075L0.804442 37.8531L0.777532 37.5923L0.751873 37.3249L0.727465 37.0503L0.704306 36.7679L0.682395 36.4772L0.661731 36.1775L0.642312 35.8679L0.624139 35.5476L0.607209 35.2153L0.591522 34.8697L0.577077 34.5093L0.563873 34.1319L0.551911 33.7352L0.541188 33.3158L0.531705 32.8695L0.523461 32.3905L0.516456 31.8705L0.510689 31.2968L0.50616 30.6488L0.502869 29.8867L0.500816 28.9148L0.5 27.2377L0.500422 23.9806L0.502081 22.8922L0.504978 22.0788L0.509112 21.4001L0.514485 20.8056L0.521095 20.2702L0.528945 19.7792L0.538033 19.3232L0.548361 18.8958L0.559928 18.4922L0.572737 18.109L0.586786 17.7434L0.602077 17.3933L0.618611 17.0569L0.636388 16.7329L0.65541 16.42L0.675678 16.1172L0.697191 15.8237L0.719953 15.5388L0.743963 15.2618L0.769223 14.9921L0.795735 14.7293L0.823499 14.4729L0.852518 14.2225L0.882793 13.9779L0.914325 13.7386L0.947117 13.5044L0.981169 13.2751L1.01649 13.0504L1.05307 12.8301L1.09091 12.6141L1.13003 12.402L1.17042 12.1939L1.21208 11.9895L1.25502 11.7887L1.29924 11.5913L1.34474 11.3973L1.39152 11.2065L1.43959 11.0189L1.48895 10.8343L1.53961 10.6526L1.59156 10.4738L1.64481 10.2978L1.69936 10.1245L1.75522 9.95381L1.8124 9.78572L1.87088 9.62015L1.93069 9.45703L1.99181 9.29631L2.05427 9.13794L2.11806 8.98187L2.18318 8.82806L2.24964 8.67645L2.31745 8.52701L2.38661 8.3797L2.45713 8.23448L2.52901 8.09132L2.60226 7.95018L2.67688 7.81102L2.75288 7.67382L2.83026 7.53855L2.90904 7.40519L2.98922 7.27369L3.07081 7.14404L3.15381 7.01621L3.23823 6.89019L3.32409 6.76594L3.41138 6.64344L3.50012 6.52268L3.59031 6.40364L3.68197 6.28629L3.7751 6.17062L3.86972 6.05661L3.96583 5.94424L4.06344 5.8335L4.16257 5.72438L4.26323 5.61685L4.36543 5.51091L4.46918 5.40654L4.5745 5.30372L4.68139 5.20245L4.78988 5.10271L4.89997 5.00449L5.01169 4.90779L5.12504 4.81258L5.24005 4.71885L5.35673 4.62661L5.47509 4.53584L5.59517 4.44652L5.71697 4.35865L5.84052 4.27223L5.96584 4.18724L6.09294 4.10367L6.22186 4.02152L6.35262 3.94078L6.48524 3.86145L6.61975 3.7835L6.75618 3.70695L6.89455 3.63178L7.0349 3.55799L7.17725 3.48557L7.32165 3.41451L7.46812 3.34481L7.61671 3.27646L7.76745 3.20946L7.92038 3.14381L8.07554 3.07949L8.23299 3.0165L8.39277 2.95485L8.55492 2.89452L8.71952 2.83551L8.8866 2.77781L9.05623 2.72143L9.22847 2.66635L9.4034 2.61259L9.58108 2.56012L9.7616 2.50895L9.94502 2.45907L10.1314 2.41049L10.321 2.36319L10.5137 2.31718L10.7097 2.27245L10.9091 2.22901L11.1121 2.18684L11.3187 2.14594L11.5292 2.10632L11.7436 2.06796L11.9622 2.03088L12.1851 1.99506L12.4126 1.9605L12.6448 1.92721L12.882 1.89518L13.1244 1.8644L13.3725 1.83488L13.6264 1.80662L13.8866 1.77961L14.1535 1.75385L14.4276 1.72934L14.7093 1.70608L14.9993 1.68407L15.2983 1.66331L15.607 1.64379L15.9265 1.62552L16.2578 1.60849L16.6022 1.59271L16.9614 1.57816L17.3373 1.56486L17.7324 1.5528L18.1499 1.54198L18.5939 1.5324L19.07 1.52405L19.5863 1.51695L20.1551 1.51108L20.7961 1.50646L21.5468 1.50307L22.4952 1.50091L24.0403 1.5L27.4092 1.50032L28.5344 1.50188L29.3623 1.50468L30.0493 1.50872L30.6494 1.51399L31.1889 1.5205L31.6831 1.52825L32.1416 1.53724L32.5711 1.54747L32.9764 1.55894L33.3612 1.57165L33.7281 1.5856L34.0794 1.60079L34.4168 1.61723L34.7417 1.63491L35.0555 1.65383L35.359 1.674L35.6532 1.69541L35.9388 1.71807L36.2164 1.74199L36.4867 1.76715L36.75 1.79356L37.0069 1.82122L37.2577 1.85014L37.5028 1.88032L37.7425 1.91175L37.9771 1.94444L38.2068 1.97839L38.4318 2.01361L38.6525 2.05009L38.8689 2.08783L39.0812 2.12685L39.2896 2.16714L39.4943 2.2087L39.6954 2.25154L39.8931 2.29565L40.0873 2.34105L40.2784 2.38773L40.4663 2.4357L40.6511 2.48496L40.833 2.53551L41.012 2.58735L41.1883 2.6405L41.3618 2.69495L41.5327 2.75071L41.701 2.80778L41.8667 2.86616L42.03 2.92586L42.1909 2.98688L42.3495 3.04923L42.5058 3.11291L42.6597 3.17792L42.8115 3.24428L42.9611 3.31198L43.1086 3.38104L43.254 3.45145L43.3973 3.52322L43.5386 3.59635L43.6779 3.67086L43.8153 3.74676L43.9507 3.82403L44.0842 3.9027L44.2159 3.98277L44.3457 4.06424L44.4736 4.14713L44.5998 4.23144L44.7242 4.31718L44.8468 4.40436L44.9677 4.49298L45.0869 4.58306L45.2044 4.6746L45.3202 4.76761L45.4343 4.86211L45.5468 4.9581L45.6577 5.0556L45.767 5.15461L45.8746 5.25514L45.9807 5.35722L46.0852 5.46085L46.1881 5.56604L46.2895 5.67281L46.3894 5.78117L46.4877 5.89113L46.5845 6.00272L46.6799 6.11594L46.7737 6.23081L46.8661 6.34736L46.957 6.46559L47.0464 6.58553L47.1344 6.70719L47.2209 6.8306L47.306 6.95577L47.3897 7.08274L47.472 7.21151L47.5528 7.34212L47.6323 7.4746L47.7103 7.60895L47.787 7.74523L47.8622 7.88344L47.9361 8.02363L48.0087 8.16583L48.0798 8.31006L48.1497 8.45637L48.2181 8.60478L48.2852 8.75535L48.351 8.9081L48.4154 9.06309L48.4785 9.22035L48.5403 9.37994L48.6007 9.54191L48.6598 9.7063L48.7176 9.87318L48.7741 10.0426L48.8293 10.2146L48.8831 10.3894L48.9357 10.5668L48.987 10.7471L49.037 10.9303L49.0857 11.1165L49.1331 11.3057L49.1792 11.4982L49.224 11.6939L49.2675 11.8931L49.3098 12.0958L49.3508 12.3021L49.3905 12.5123L49.429 12.7264L49.4662 12.9446L49.5021 13.1672L49.5368 13.3943L49.5701 13.6261L49.6023 13.8629L49.6332 14.1049L49.6628 14.3525L49.6911 14.606L49.7183 14.8657L49.7441 15.132L49.7687 15.4055L49.7921 15.6866L49.8142 15.9759L49.835 16.2741L49.8547 16.582L49.873 16.9006L49.8902 17.2309L49.906 17.5743L49.9207 17.9322L49.9341 18.3067L49.9463 18.7002L49.9572 19.1157L49.9669 19.5574L49.9753 20.0307L49.9825 20.5435L49.9885 21.1075L49.9932 21.7417L49.9967 22.4815L49.9989 23.408L49.9999 24.8531L50 26.25Z" fill="url(#paint0_linear_2467_366)"/>
<g filter="url(#filter0_d_2467_366)">
<path fill-rule="evenodd" clip-rule="evenodd" d="M12.625 41.1875L12.6382 17.45C12.6382 15.9928 13.8053 14.8125 15.2625 14.8125H36.3625C37.8197 14.8125 39 15.9928 39 17.45V33.275C39 34.7323 37.8197 35.9125 36.3625 35.9125H17.9L12.625 41.1875ZM19.5041 26.1117H21.8549V23.7609H19.5041V26.1117ZM24.7791 26.1117H27.1299V23.7609H24.7791V26.1117ZM32.4049 26.1117H30.0541V23.7609H32.4049V26.1117Z" fill="white"/>
</g>
<path fill-rule="evenodd" clip-rule="evenodd" d="M50.1562 25.5L50.1556 27.975L50.1538 29L50.1507 29.7865L50.1463 30.4493L50.1408 31.0331L50.134 31.5607L50.1259 32.0455L50.1166 32.4966L50.1061 32.92L50.0943 33.3201L50.0813 33.7004L50.0671 34.0634L50.0516 34.4112L50.0349 34.7455L50.0169 35.0677L49.9977 35.3789L49.9772 35.6801L49.9555 35.9722L49.9325 36.2558L49.9083 36.5316L49.8829 36.8002L49.8562 37.062L49.8282 37.3174L49.799 37.5668L49.7685 37.8106L49.7368 38.049L49.7038 38.2824L49.6695 38.511L49.634 38.7349L49.5972 38.9545L49.5592 39.1699L49.5199 39.3813L49.4793 39.5889L49.4374 39.7927L49.3943 39.993L49.3498 40.1898L49.3041 40.3833L49.2571 40.5735L49.2089 40.7607L49.1593 40.9448L49.1084 41.126L49.0563 41.3044L49.0028 41.48L48.9481 41.6528L48.892 41.8231L48.8346 41.9908L48.7759 42.156L48.7159 42.3187L48.6546 42.479L48.5919 42.637L48.5279 42.7927L48.4626 42.9462L48.3959 43.0975L48.3279 43.2466L48.2585 43.3935L48.1877 43.5384L48.1157 43.6813L48.0422 43.8221L47.9673 43.9609L47.8911 44.0978L47.8135 44.2328L47.7345 44.3659L47.6541 44.4971L47.5723 44.6264L47.4891 44.7539L47.4044 44.8797L47.3183 45.0037L47.2308 45.1259L47.1419 45.2464L47.0514 45.3651L46.9595 45.4822L46.8662 45.5976L46.7713 45.7114L46.675 45.8235L46.5771 45.934L46.4777 46.0428L46.3768 46.1501L46.2744 46.2558L46.1704 46.3599L46.0648 46.4625L45.9577 46.5635L45.8489 46.663L45.7386 46.761L45.6266 46.8574L45.513 46.9524L45.3977 47.0459L45.2808 47.1379L45.1621 47.2285L45.0418 47.3175L44.9197 47.4052L44.7959 47.4914L44.6703 47.5761L44.5429 47.6595L44.4137 47.7414L44.2826 47.8219L44.1497 47.901L44.0149 47.9787L43.8781 48.0551L43.7395 48.13L43.5988 48.2036L43.4561 48.2758L43.3114 48.3467L43.1646 48.4161L43.0157 48.4843L42.8646 48.5511L42.7113 48.6165L42.5558 48.6806L42.398 48.7434L42.2378 48.8048L42.0753 48.8649L41.9103 48.9237L41.7428 48.9812L41.5728 49.0374L41.4001 49.0923L41.2247 49.1458L41.0466 49.1981L40.8656 49.2491L40.6817 49.2987L40.4948 49.3471L40.3048 49.3942L40.1116 49.44L39.915 49.4845L39.715 49.5278L39.5115 49.5697L39.3043 49.6104L39.0932 49.6498L38.8781 49.688L38.6588 49.7249L38.4352 49.7605L38.207 49.7948L37.974 49.8279L37.736 49.8598L37.4927 49.8904L37.2437 49.9197L36.9888 49.9477L36.7275 49.9745L36.4595 50.0001L36.1843 50.0244L35.9013 50.0475L35.6099 50.0693L35.3095 50.0898L34.9991 50.1092L34.6778 50.1272L34.3445 50.1441L33.9978 50.1597L33.6361 50.174L33.2573 50.1871L32.8589 50.199L32.4375 50.2096L31.9889 50.219L31.507 50.2271L30.9832 50.234L30.4046 50.2397L29.7492 50.2441L28.9753 50.2473L27.9779 50.2493L26.1047 50.25L23.0318 50.2495L21.9766 50.2477L21.177 50.2447L20.5064 50.2405L19.9173 50.235L19.3859 50.2283L18.898 50.2204L18.4445 50.2112L18.0191 50.2008L17.6172 50.1891L17.2355 50.1762L16.8712 50.162L16.5222 50.1466L16.1869 50.13L15.8638 50.1121L15.5518 50.093L15.2498 50.0726L14.957 50.051L14.6727 50.0282L14.3963 50.0041L14.1272 49.9787L13.8649 49.9521L13.609 49.9242L13.3591 49.8951L13.1149 49.8647L12.876 49.8331L12.6422 49.8002L12.4133 49.7661L12.189 49.7306L11.969 49.694L11.7533 49.656L11.5416 49.6168L11.3337 49.5763L11.1296 49.5345L10.9291 49.4915L10.732 49.4472L10.5382 49.4016L10.3477 49.3547L10.1603 49.3065L9.97595 49.257L9.79452 49.2063L9.61595 49.1542L9.44015 49.1009L9.26706 49.0462L9.0966 48.9903L8.92871 48.933L8.76334 48.8744L8.60041 48.8145L8.43988 48.7532L8.2817 48.6907L8.12581 48.6268L7.97217 48.5616L7.82074 48.495L7.67147 48.4271L7.52433 48.3578L7.37927 48.2872L7.23627 48.2152L7.09529 48.1418L6.95629 48.0671L6.81925 47.991L6.68413 47.9135L6.55091 47.8346L6.41956 47.7543L6.29006 47.6726L6.16238 47.5895L6.03649 47.505L5.91238 47.419L5.79003 47.3316L5.66941 47.2427L5.5505 47.1524L5.43328 47.0607L5.31774 46.9674L5.20387 46.8727L5.09163 46.7764L4.98102 46.6787L4.87203 46.5795L4.76463 46.4787L4.65881 46.3764L4.55456 46.2725L4.45187 46.167L4.35072 46.06L4.2511 45.9514L4.15301 45.8412L4.05642 45.7293L3.96133 45.6158L3.86772 45.5007L3.7756 45.3839L3.68494 45.2654L3.59574 45.1452L3.50799 45.0232L3.42168 44.8996L3.3368 44.7741L3.25335 44.6468L3.17131 44.5178L3.09068 44.3869L3.01146 44.2541L2.93363 44.1194L2.85718 43.9829L2.78212 43.8443L2.70844 43.7038L2.63613 43.5613L2.56518 43.4167L2.49558 43.2701L2.42734 43.1214L2.36045 42.9704L2.2949 42.8173L2.23069 42.662L2.16781 42.5044L2.10626 42.3444L2.04604 42.182L1.98713 42.0173L1.92954 41.85L1.87326 41.6801L1.81829 41.5077L1.76463 41.3325L1.71226 41.1546L1.6612 40.9739L1.61142 40.7902L1.56294 40.6036L1.51575 40.4138L1.46984 40.2208L1.42522 40.0245L1.38187 39.8248L1.3398 39.6216L1.29901 39.4146L1.25949 39.2039L1.22123 38.9891L1.18425 38.7702L1.14853 38.5469L1.11408 38.3191L1.08088 38.0865L1.04895 37.8489L1.01828 37.606L0.988856 37.3575L0.960692 37.1031L0.933782 36.8423L0.908123 36.5749L0.883715 36.3003L0.860556 36.0179L0.838645 35.7272L0.817981 35.4275L0.798562 35.1179L0.780389 34.7976L0.763459 34.4653L0.747772 34.1197L0.733327 33.7593L0.720123 33.3819L0.708161 32.9852L0.697438 32.5658L0.687955 32.1195L0.679711 31.6405L0.672706 31.1205L0.666939 30.5468L0.66241 29.8988L0.659119 29.1367L0.657066 28.1648L0.65625 26.4877L0.656672 23.2306L0.658331 22.1422L0.661228 21.3288L0.665362 20.6501L0.670735 20.0556L0.677345 19.5202L0.685195 19.0292L0.694283 18.5732L0.704611 18.1458L0.716178 17.7422L0.728987 17.359L0.743036 16.9934L0.758327 16.6433L0.774861 16.3069L0.792638 15.9829L0.81166 15.67L0.831928 15.3672L0.853441 15.0737L0.876203 14.7888L0.900213 14.5118L0.925473 14.2421L0.951985 13.9793L0.979749 13.7229L1.00877 13.4725L1.03904 13.2279L1.07058 12.9886L1.10337 12.7544L1.13742 12.5251L1.17274 12.3004L1.20932 12.0801L1.24716 11.8641L1.28628 11.652L1.32667 11.4439L1.36833 11.2395L1.41127 11.0387L1.45549 10.8413L1.50099 10.6473L1.54777 10.4565L1.59584 10.2689L1.6452 10.0843L1.69586 9.9026L1.74781 9.7238L1.80106 9.54778L1.85561 9.37448L1.91147 9.20381L1.96865 9.03572L2.02713 8.87015L2.08694 8.70703L2.14806 8.54631L2.21052 8.38794L2.27431 8.23187L2.33943 8.07806L2.40589 7.92645L2.4737 7.77701L2.54286 7.6297L2.61338 7.48448L2.68526 7.34132L2.75851 7.20018L2.83313 7.06102L2.90913 6.92382L2.98651 6.78855L3.06529 6.65519L3.14547 6.52369L3.22706 6.39404L3.31006 6.26621L3.39448 6.14019L3.48034 6.01594L3.56763 5.89344L3.65637 5.77268L3.74656 5.65364L3.83822 5.53629L3.93135 5.42062L4.02597 5.30661L4.12208 5.19424L4.21969 5.0835L4.31882 4.97438L4.41948 4.86685L4.52168 4.76091L4.62543 4.65654L4.73075 4.55372L4.83764 4.45245L4.94613 4.35271L5.05622 4.25449L5.16794 4.15779L5.28129 4.06258L5.3963 3.96885L5.51298 3.87661L5.63134 3.78584L5.75142 3.69652L5.87322 3.60865L5.99677 3.52223L6.12209 3.43724L6.24919 3.35367L6.37811 3.27152L6.50887 3.19078L6.64149 3.11145L6.776 3.0335L6.91243 2.95695L7.0508 2.88178L7.19115 2.80799L7.3335 2.73557L7.4779 2.66451L7.62437 2.59481L7.77296 2.52646L7.9237 2.45946L8.07663 2.39381L8.23179 2.32949L8.38924 2.2665L8.54902 2.20485L8.71117 2.14452L8.87577 2.08551L9.04285 2.02781L9.21248 1.97143L9.38472 1.91635L9.55965 1.86259L9.73733 1.81012L9.91785 1.75895L10.1013 1.70907L10.2877 1.66049L10.4772 1.61319L10.6699 1.56718L10.8659 1.52245L11.0654 1.47901L11.2683 1.43684L11.475 1.39594L11.6854 1.35632L11.8999 1.31796L12.1184 1.28088L12.3414 1.24506L12.5688 1.2105L12.801 1.17721L13.0382 1.14518L13.2807 1.1144L13.5287 1.08488L13.7827 1.05662L14.0429 1.02961L14.3098 1.00385L14.5838 0.979343L14.8655 0.956085L15.1555 0.934075L15.4545 0.913311L15.7633 0.893793L16.0827 0.875521L16.414 0.858492L16.7585 0.842706L17.1177 0.828162L17.4936 0.81486L17.8887 0.802798L18.3061 0.791977L18.7501 0.782395L19.2262 0.774053L19.7426 0.766949L20.3113 0.761083L20.9524 0.756456L21.7031 0.753066L22.6515 0.750914L24.1965 0.75L27.5655 0.750323L28.6906 0.751884L29.5186 0.754682L30.2056 0.758718L30.8057 0.763992L31.3452 0.770504L31.8393 0.778255L32.2978 0.787244L32.7274 0.797473L33.1327 0.808942L33.5174 0.821652L33.8843 0.835602L34.2356 0.850794L34.573 0.867229L34.898 0.884908L35.2117 0.90383L35.5153 0.923998L35.8095 0.945413L36.095 0.968075L36.3727 0.991986L36.6429 1.01715L36.9063 1.04356L37.1632 1.07122L37.414 1.10014L37.6591 1.13032L37.8988 1.16175L38.1333 1.19444L38.363 1.22839L38.5881 1.26361L38.8087 1.30009L39.0251 1.33783L39.2374 1.37685L39.4459 1.41714L39.6506 1.4587L39.8517 1.50154L40.0493 1.54565L40.2436 1.59105L40.4346 1.63773L40.6225 1.6857L40.8074 1.73496L40.9893 1.78551L41.1683 1.83735L41.3445 1.8905L41.518 1.94495L41.6889 2.00071L41.8572 2.05778L42.023 2.11616L42.1863 2.17586L42.3472 2.23688L42.5057 2.29923L42.662 2.36291L42.816 2.42792L42.9678 2.49428L43.1174 2.56198L43.2649 2.63104L43.4102 2.70145L43.5536 2.77322L43.6949 2.84635L43.8342 2.92086L43.9715 2.99676L44.107 3.07403L44.2405 3.1527L44.3721 3.23277L44.5019 3.31424L44.6299 3.39713L44.7561 3.48144L44.8805 3.56718L45.0031 3.65436L45.124 3.74298L45.2432 3.83306L45.3606 3.9246L45.4764 4.01761L45.5906 4.11211L45.7031 4.2081L45.814 4.3056L45.9232 4.40461L46.0309 4.50514L46.1369 4.60722L46.2414 4.71085L46.3444 4.81604L46.4458 4.92281L46.5456 5.03117L46.644 5.14113L46.7408 5.25272L46.8361 5.36594L46.93 5.48081L47.0223 5.59736L47.1132 5.71559L47.2026 5.83553L47.2906 5.95719L47.3772 6.0806L47.4623 6.20577L47.5459 6.33274L47.6282 6.46151L47.7091 6.59212L47.7885 6.7246L47.8666 6.85895L47.9432 6.99523L48.0185 7.13344L48.0924 7.27363L48.1649 7.41583L48.2361 7.56006L48.3059 7.70637L48.3744 7.85478L48.4415 8.00535L48.5072 8.1581L48.5717 8.31309L48.6347 8.47035L48.6965 8.62994L48.7569 8.79191L48.8161 8.9563L48.8739 9.12318L48.9303 9.29261L48.9855 9.46465L49.0394 9.63936L49.092 9.81682L49.1432 9.9971L49.1932 10.1803L49.2419 10.3665L49.2893 10.5557L49.3354 10.7482L49.3802 10.9439L49.4238 11.1431L49.4661 11.3458L49.5071 11.5521L49.5468 11.7623L49.5852 11.9764L49.6224 12.1946L49.6583 12.4172L49.693 12.6443L49.7264 12.8761L49.7585 13.1129L49.7894 13.3549L49.819 13.6025L49.8474 13.856L49.8745 14.1157L49.9004 14.382L49.925 14.6555L49.9483 14.9366L49.9704 15.2259L49.9913 15.5241L50.0109 15.832L50.0293 16.1506L50.0464 16.4809L50.0623 16.8243L50.0769 17.1822L50.0903 17.5567L50.1025 17.9502L50.1134 18.3657L50.1231 18.8074L50.1315 19.2807L50.1387 19.7935L50.1447 20.3575L50.1494 20.9917L50.1529 21.7315L50.1552 22.658L50.1562 24.1031L50.1562 25.5Z" fill="url(#paint1_linear_2467_366)"/>
<g filter="url(#filter1_d_2467_366)">
<path fill-rule="evenodd" clip-rule="evenodd" d="M12.7812 40.4375L12.7944 16.7C12.7944 15.2428 13.9615 14.0625 15.4188 14.0625H36.5187C37.9759 14.0625 39.1563 15.2428 39.1563 16.7V32.525C39.1563 33.9823 37.9759 35.1625 36.5187 35.1625H18.0562L12.7812 40.4375ZM19.6603 25.3617H22.0111V23.0109H19.6603V25.3617ZM24.9354 25.3617H27.2862V23.0109H24.9354V25.3617ZM32.5612 25.3617H30.2103V23.0109H32.5612V25.3617Z" fill="white"/>
</g>
<defs>
<filter id="filter0_d_2467_366" x="11.625" y="14.8125" width="28.375" height="28.375" filterUnits="userSpaceOnUse" color-interpolation-filters="sRGB">
<feFlood flood-opacity="0" result="BackgroundImageFix"/>
<feColorMatrix in="SourceAlpha" type="matrix" values="0 0 0 0 0 0 0 0 0 0 0 0 0 0 0 0 0 0 127 0" result="hardAlpha"/>
<feOffset dy="1"/>
<feGaussianBlur stdDeviation="0.5"/>
<feColorMatrix type="matrix" values="0 0 0 0 0 0 0 0 0 0 0 0 0 0 0 0 0 0 0.25 0"/>
<feBlend mode="normal" in2="BackgroundImageFix" result="effect1_dropShadow_2467_366"/>
<feBlend mode="normal" in="SourceGraphic" in2="effect1_dropShadow_2467_366" result="shape"/>
</filter>
<filter id="filter1_d_2467_366" x="11.7812" y="14.0625" width="28.375" height="28.375" filterUnits="userSpaceOnUse" color-interpolation-filters="sRGB">
<feFlood flood-opacity="0" result="BackgroundImageFix"/>
<feColorMatrix in="SourceAlpha" type="matrix" values="0 0 0 0 0 0 0 0 0 0 0 0 0 0 0 0 0 0 127 0" result="hardAlpha"/>
<feOffset dy="1"/>
<feGaussianBlur stdDeviation="0.5"/>
<feColorMatrix type="matrix" values="0 0 0 0 0 0 0 0 0 0 0 0 0 0 0 0 0 0 0.18 0"/>
<feBlend mode="normal" in2="BackgroundImageFix" result="effect1_dropShadow_2467_366"/>
<feBlend mode="normal" in="SourceGraphic" in2="effect1_dropShadow_2467_366" result="shape"/>
</filter>
<linearGradient id="paint0_linear_2467_366" x1="25.25" y1="1.5" x2="25.25" y2="51" gradientUnits="userSpaceOnUse">
<stop stop-color="#FF946E"/>
<stop offset="1" stop-color="#FFB86C"/>
</linearGradient>
<linearGradient id="paint1_linear_2467_366" x1="0.65625" y1="50.25" x2="50.1562" y2="0.75" gradientUnits="userSpaceOnUse">
<stop stop-color="#FF946E"/>
<stop offset="1" stop-color="#FFB86C"/>
</linearGradient>
</defs>
</svg>
