<svg width="32" height="33" viewBox="0 0 32 33" fill="none" xmlns="http://www.w3.org/2000/svg">
<path fill-rule="evenodd" clip-rule="evenodd" d="M11.9724 6.57227H19.959C23.2048 6.57227 25.8454 9.21292 25.8454 12.4587V20.4453C25.8454 23.6911 23.2048 26.3318 19.959 26.3318H11.9724C8.72659 26.3318 6.08594 23.6911 6.08594 20.4453V12.4587C6.08594 9.21292 8.72659 6.57227 11.9724 6.57227ZM19.9589 24.345C22.1121 24.345 23.8576 22.5995 23.8576 20.4463V12.4598C23.8576 10.3066 22.1121 8.56109 19.9589 8.56109H11.9723C9.81918 8.56109 8.07367 10.3066 8.07367 12.4598V20.4463C8.07367 22.5995 9.81918 24.345 11.9723 24.345H19.9589Z" fill="white"/>
<path fill-rule="evenodd" clip-rule="evenodd" d="M10.8549 16.4532C10.8549 13.6353 13.1475 11.3428 15.9654 11.3428C18.7834 11.3428 21.0759 13.6353 21.0759 16.4532C21.0759 19.2712 18.7834 21.5638 15.9654 21.5638C13.1475 21.5638 10.8549 19.2712 10.8549 16.4532ZM12.8427 16.4533C12.8427 18.178 14.2408 19.576 15.9654 19.576C17.69 19.576 19.0881 18.1779 19.0881 16.4533C19.0881 14.7287 17.6901 13.3306 15.9654 13.3306C14.2408 13.3306 12.8427 14.7287 12.8427 16.4533Z" fill="white"/>
<path d="M21.084 12.6052C21.7603 12.6052 22.3085 12.0569 22.3085 11.3806C22.3085 10.7043 21.7603 10.156 21.084 10.156C20.4076 10.156 19.8594 10.7043 19.8594 11.3806C19.8594 12.0569 20.4076 12.6052 21.084 12.6052Z" fill="white"/>
</svg>
