<svg width="22" height="13" viewBox="0 0 22 13" fill="none" xmlns="http://www.w3.org/2000/svg">
<path fill-rule="evenodd" clip-rule="evenodd" d="M10.3955 12.3224H11.6513C11.6513 12.3224 12.0306 12.2807 12.2243 12.0719C12.4025 11.8803 12.3968 11.5203 12.3968 11.5203C12.3968 11.5203 12.3723 9.83528 13.1543 9.58714C13.9253 9.34271 14.9153 11.2157 15.9646 11.9359C16.758 12.4809 17.361 12.3614 17.361 12.3614L20.1666 12.3224C20.1666 12.3224 21.6344 12.2319 20.9384 11.078C20.8814 10.9836 20.5331 10.2243 18.8524 8.66419C17.0932 7.03133 17.3288 7.29544 19.4479 4.47095C20.7385 2.75082 21.2545 1.70066 21.0933 1.25087C20.9396 0.822481 19.9904 0.935711 19.9904 0.935711L16.8313 0.955391C16.8313 0.955391 16.5972 0.923447 16.4235 1.02727C16.2538 1.12909 16.1445 1.36639 16.1445 1.36639C16.1445 1.36639 15.6446 2.69749 14.9777 3.8295C13.571 6.21818 13.0086 6.34425 12.7787 6.19593C12.2439 5.85025 12.3774 4.80722 12.3774 4.06623C12.3774 1.75143 12.7285 0.786258 11.6938 0.53641C11.3504 0.453412 11.0977 0.398651 10.2195 0.389809C9.09231 0.378115 8.13827 0.393232 7.59807 0.657911C7.2387 0.833889 6.96147 1.22606 7.13031 1.24859C7.33909 1.27654 7.81198 1.37608 8.06268 1.71749C8.3864 2.15786 8.37499 3.14698 8.37499 3.14698C8.37499 3.14698 8.56095 5.87193 7.94061 6.21048C7.51479 6.44265 6.93066 5.96862 5.67657 3.80155C5.03398 2.6915 4.54883 1.4645 4.54883 1.4645C4.54883 1.4645 4.45528 1.23519 4.28843 1.11254C4.08593 0.963947 3.80299 0.916602 3.80299 0.916602L0.801105 0.936281C0.801105 0.936281 0.350465 0.948831 0.18504 1.14477C0.0378691 1.31904 0.173346 1.67955 0.173346 1.67955C0.173346 1.67955 2.52352 7.17793 5.18458 9.9488C7.62459 12.4892 10.3955 12.3224 10.3955 12.3224Z" fill="white"/>
</svg>
