<svg width="32" height="33" viewBox="0 0 32 33" fill="none" xmlns="http://www.w3.org/2000/svg">
<path fill-rule="evenodd" clip-rule="evenodd" d="M15.3955 23.3224H16.6513C16.6513 23.3224 17.0306 23.2807 17.2243 23.0719C17.4025 22.8803 17.3968 22.5203 17.3968 22.5203C17.3968 22.5203 17.3723 20.8353 18.1543 20.5871C18.9253 20.3427 19.9153 22.2157 20.9646 22.9359C21.758 23.4809 22.361 23.3614 22.361 23.3614L25.1666 23.3224C25.1666 23.3224 26.6344 23.2319 25.9384 22.078C25.8814 21.9836 25.5331 21.2243 23.8524 19.6642C22.0932 18.0313 22.3288 18.2954 24.4479 15.471C25.7385 13.7508 26.2545 12.7007 26.0933 12.2509C25.9396 11.8225 24.9904 11.9357 24.9904 11.9357L21.8313 11.9554C21.8313 11.9554 21.5972 11.9234 21.4235 12.0273C21.2538 12.1291 21.1445 12.3664 21.1445 12.3664C21.1445 12.3664 20.6446 13.6975 19.9777 14.8295C18.571 17.2182 18.0086 17.3442 17.7787 17.1959C17.2439 16.8503 17.3774 15.8072 17.3774 15.0662C17.3774 12.7514 17.7285 11.7863 16.6938 11.5364C16.3504 11.4534 16.0977 11.3987 15.2195 11.3898C14.0923 11.3781 13.1383 11.3932 12.5981 11.6579C12.2387 11.8339 11.9615 12.2261 12.1303 12.2486C12.3391 12.2765 12.812 12.3761 13.0627 12.7175C13.3864 13.1579 13.375 14.147 13.375 14.147C13.375 14.147 13.561 16.8719 12.9406 17.2105C12.5148 17.4426 11.9307 16.9686 10.6766 14.8016C10.034 13.6915 9.54883 12.4645 9.54883 12.4645C9.54883 12.4645 9.45528 12.2352 9.28843 12.1125C9.08593 11.9639 8.80299 11.9166 8.80299 11.9166L5.8011 11.9363C5.8011 11.9363 5.35046 11.9488 5.18504 12.1448C5.03787 12.319 5.17335 12.6796 5.17335 12.6796C5.17335 12.6796 7.52352 18.1779 10.1846 20.9488C12.6246 23.4892 15.3955 23.3224 15.3955 23.3224Z" fill="white"/>
</svg>
